<mxfile host="Electron" modified="2024-02-07T17:54:13.826Z" agent="Mozilla/5.0 (Macintosh; Intel Mac OS X 10_15_7) AppleWebKit/537.36 (KHTML, like Gecko) draw.io/23.0.2 Chrome/120.0.6099.109 Electron/28.1.0 Safari/537.36" etag="2SVAw9P0drQRjbU1QP2h" version="23.0.2" type="device">
  <diagram name="Page-1" id="anuovr1NJjBjm78ncV5i">
    <mxGraphModel dx="1199" dy="2047" grid="1" gridSize="10" guides="1" tooltips="1" connect="1" arrows="1" fold="1" page="1" pageScale="1" pageWidth="827" pageHeight="1169" math="0" shadow="0">
      <root>
        <mxCell id="0" />
        <mxCell id="1" parent="0" />
        <mxCell id="LXHgbnVBe5iBIq8MEzDh-35" value="" style="rounded=0;whiteSpace=wrap;html=1;sketch=1;hachureGap=4;jiggle=2;curveFitting=1;fontFamily=Architects Daughter;fontSource=https%3A%2F%2Ffonts.googleapis.com%2Fcss%3Ffamily%3DArchitects%2BDaughter;fontSize=20;" vertex="1" parent="1">
          <mxGeometry x="170" y="-60" width="420" height="280" as="geometry" />
        </mxCell>
        <mxCell id="LXHgbnVBe5iBIq8MEzDh-36" value="Computer&#39;s memory" style="text;html=1;strokeColor=none;fillColor=none;align=center;verticalAlign=middle;whiteSpace=wrap;rounded=0;fontSize=20;fontFamily=Architects Daughter;" vertex="1" parent="1">
          <mxGeometry x="150" y="-50" width="250" height="30" as="geometry" />
        </mxCell>
        <mxCell id="LXHgbnVBe5iBIq8MEzDh-37" value="" style="rounded=0;whiteSpace=wrap;html=1;sketch=1;hachureGap=4;jiggle=2;curveFitting=1;fontFamily=Architects Daughter;fontSource=https%3A%2F%2Ffonts.googleapis.com%2Fcss%3Ffamily%3DArchitects%2BDaughter;fontSize=20;" vertex="1" parent="1">
          <mxGeometry x="180" y="-10" width="30" height="60" as="geometry" />
        </mxCell>
        <mxCell id="LXHgbnVBe5iBIq8MEzDh-38" value="" style="rounded=0;whiteSpace=wrap;html=1;sketch=1;hachureGap=4;jiggle=2;curveFitting=1;fontFamily=Architects Daughter;fontSource=https%3A%2F%2Ffonts.googleapis.com%2Fcss%3Ffamily%3DArchitects%2BDaughter;fontSize=20;" vertex="1" parent="1">
          <mxGeometry x="220" y="-10" width="30" height="60" as="geometry" />
        </mxCell>
        <mxCell id="LXHgbnVBe5iBIq8MEzDh-39" value="" style="rounded=0;whiteSpace=wrap;html=1;sketch=1;hachureGap=4;jiggle=2;curveFitting=1;fontFamily=Architects Daughter;fontSource=https%3A%2F%2Ffonts.googleapis.com%2Fcss%3Ffamily%3DArchitects%2BDaughter;fontSize=20;" vertex="1" parent="1">
          <mxGeometry x="260" y="-10" width="30" height="60" as="geometry" />
        </mxCell>
        <mxCell id="LXHgbnVBe5iBIq8MEzDh-40" value="" style="rounded=0;whiteSpace=wrap;html=1;sketch=1;hachureGap=4;jiggle=2;curveFitting=1;fontFamily=Architects Daughter;fontSource=https%3A%2F%2Ffonts.googleapis.com%2Fcss%3Ffamily%3DArchitects%2BDaughter;fontSize=20;" vertex="1" parent="1">
          <mxGeometry x="300" y="-10" width="30" height="60" as="geometry" />
        </mxCell>
        <mxCell id="LXHgbnVBe5iBIq8MEzDh-41" value="" style="rounded=0;whiteSpace=wrap;html=1;sketch=1;hachureGap=4;jiggle=2;curveFitting=1;fontFamily=Architects Daughter;fontSource=https%3A%2F%2Ffonts.googleapis.com%2Fcss%3Ffamily%3DArchitects%2BDaughter;fontSize=20;" vertex="1" parent="1">
          <mxGeometry x="340" y="-10" width="30" height="60" as="geometry" />
        </mxCell>
        <mxCell id="LXHgbnVBe5iBIq8MEzDh-42" value="" style="rounded=0;whiteSpace=wrap;html=1;sketch=1;hachureGap=4;jiggle=2;curveFitting=1;fontFamily=Architects Daughter;fontSource=https%3A%2F%2Ffonts.googleapis.com%2Fcss%3Ffamily%3DArchitects%2BDaughter;fontSize=20;" vertex="1" parent="1">
          <mxGeometry x="380" y="-10" width="30" height="60" as="geometry" />
        </mxCell>
        <mxCell id="LXHgbnVBe5iBIq8MEzDh-43" value="" style="rounded=0;whiteSpace=wrap;html=1;sketch=1;hachureGap=4;jiggle=2;curveFitting=1;fontFamily=Architects Daughter;fontSource=https%3A%2F%2Ffonts.googleapis.com%2Fcss%3Ffamily%3DArchitects%2BDaughter;fontSize=20;" vertex="1" parent="1">
          <mxGeometry x="420" y="-10" width="30" height="60" as="geometry" />
        </mxCell>
        <mxCell id="LXHgbnVBe5iBIq8MEzDh-44" value="" style="rounded=0;whiteSpace=wrap;html=1;sketch=1;hachureGap=4;jiggle=2;curveFitting=1;fontFamily=Architects Daughter;fontSource=https%3A%2F%2Ffonts.googleapis.com%2Fcss%3Ffamily%3DArchitects%2BDaughter;fontSize=20;" vertex="1" parent="1">
          <mxGeometry x="460" y="-10" width="30" height="60" as="geometry" />
        </mxCell>
        <mxCell id="LXHgbnVBe5iBIq8MEzDh-45" value="" style="rounded=0;whiteSpace=wrap;html=1;sketch=1;hachureGap=4;jiggle=2;curveFitting=1;fontFamily=Architects Daughter;fontSource=https%3A%2F%2Ffonts.googleapis.com%2Fcss%3Ffamily%3DArchitects%2BDaughter;fontSize=20;" vertex="1" parent="1">
          <mxGeometry x="500" y="-10" width="30" height="60" as="geometry" />
        </mxCell>
        <mxCell id="LXHgbnVBe5iBIq8MEzDh-46" value="" style="rounded=0;whiteSpace=wrap;html=1;sketch=1;hachureGap=4;jiggle=2;curveFitting=1;fontFamily=Architects Daughter;fontSource=https%3A%2F%2Ffonts.googleapis.com%2Fcss%3Ffamily%3DArchitects%2BDaughter;fontSize=20;" vertex="1" parent="1">
          <mxGeometry x="540" y="-10" width="30" height="60" as="geometry" />
        </mxCell>
        <mxCell id="LXHgbnVBe5iBIq8MEzDh-47" value="" style="rounded=0;whiteSpace=wrap;html=1;sketch=1;hachureGap=4;jiggle=2;curveFitting=1;fontFamily=Architects Daughter;fontSource=https%3A%2F%2Ffonts.googleapis.com%2Fcss%3Ffamily%3DArchitects%2BDaughter;fontSize=20;strokeWidth=2;strokeColor=#FF0000;" vertex="1" parent="1">
          <mxGeometry x="180" y="60" width="30" height="60" as="geometry" />
        </mxCell>
        <mxCell id="LXHgbnVBe5iBIq8MEzDh-48" value="" style="rounded=0;whiteSpace=wrap;html=1;sketch=1;hachureGap=4;jiggle=2;curveFitting=1;fontFamily=Architects Daughter;fontSource=https%3A%2F%2Ffonts.googleapis.com%2Fcss%3Ffamily%3DArchitects%2BDaughter;fontSize=20;strokeWidth=2;strokeColor=#FF0000;" vertex="1" parent="1">
          <mxGeometry x="220" y="60" width="30" height="60" as="geometry" />
        </mxCell>
        <mxCell id="LXHgbnVBe5iBIq8MEzDh-49" value="" style="rounded=0;whiteSpace=wrap;html=1;sketch=1;hachureGap=4;jiggle=2;curveFitting=1;fontFamily=Architects Daughter;fontSource=https%3A%2F%2Ffonts.googleapis.com%2Fcss%3Ffamily%3DArchitects%2BDaughter;fontSize=20;strokeWidth=2;strokeColor=#FF0000;" vertex="1" parent="1">
          <mxGeometry x="260" y="60" width="30" height="60" as="geometry" />
        </mxCell>
        <mxCell id="LXHgbnVBe5iBIq8MEzDh-50" value="" style="rounded=0;whiteSpace=wrap;html=1;sketch=1;hachureGap=4;jiggle=2;curveFitting=1;fontFamily=Architects Daughter;fontSource=https%3A%2F%2Ffonts.googleapis.com%2Fcss%3Ffamily%3DArchitects%2BDaughter;fontSize=20;strokeWidth=2;strokeColor=#FF0000;" vertex="1" parent="1">
          <mxGeometry x="300" y="60" width="30" height="60" as="geometry" />
        </mxCell>
        <mxCell id="LXHgbnVBe5iBIq8MEzDh-51" value="" style="rounded=0;whiteSpace=wrap;html=1;sketch=1;hachureGap=4;jiggle=2;curveFitting=1;fontFamily=Architects Daughter;fontSource=https%3A%2F%2Ffonts.googleapis.com%2Fcss%3Ffamily%3DArchitects%2BDaughter;fontSize=20;strokeWidth=2;strokeColor=#FF0000;" vertex="1" parent="1">
          <mxGeometry x="340" y="60" width="30" height="60" as="geometry" />
        </mxCell>
        <mxCell id="LXHgbnVBe5iBIq8MEzDh-52" value="" style="rounded=0;whiteSpace=wrap;html=1;sketch=1;hachureGap=4;jiggle=2;curveFitting=1;fontFamily=Architects Daughter;fontSource=https%3A%2F%2Ffonts.googleapis.com%2Fcss%3Ffamily%3DArchitects%2BDaughter;fontSize=20;strokeWidth=2;strokeColor=#FF0000;" vertex="1" parent="1">
          <mxGeometry x="380" y="60" width="30" height="60" as="geometry" />
        </mxCell>
        <mxCell id="LXHgbnVBe5iBIq8MEzDh-53" value="" style="rounded=0;whiteSpace=wrap;html=1;sketch=1;hachureGap=4;jiggle=2;curveFitting=1;fontFamily=Architects Daughter;fontSource=https%3A%2F%2Ffonts.googleapis.com%2Fcss%3Ffamily%3DArchitects%2BDaughter;fontSize=20;strokeWidth=2;strokeColor=#FF0000;" vertex="1" parent="1">
          <mxGeometry x="420" y="60" width="30" height="60" as="geometry" />
        </mxCell>
        <mxCell id="LXHgbnVBe5iBIq8MEzDh-54" value="" style="rounded=0;whiteSpace=wrap;html=1;sketch=1;hachureGap=4;jiggle=2;curveFitting=1;fontFamily=Architects Daughter;fontSource=https%3A%2F%2Ffonts.googleapis.com%2Fcss%3Ffamily%3DArchitects%2BDaughter;fontSize=20;strokeWidth=2;strokeColor=#FF0000;" vertex="1" parent="1">
          <mxGeometry x="500" y="60" width="30" height="60" as="geometry" />
        </mxCell>
        <mxCell id="LXHgbnVBe5iBIq8MEzDh-55" value="" style="rounded=0;whiteSpace=wrap;html=1;sketch=1;hachureGap=4;jiggle=2;curveFitting=1;fontFamily=Architects Daughter;fontSource=https%3A%2F%2Ffonts.googleapis.com%2Fcss%3Ffamily%3DArchitects%2BDaughter;fontSize=20;strokeWidth=2;strokeColor=#FF0000;" vertex="1" parent="1">
          <mxGeometry x="540" y="60" width="30" height="60" as="geometry" />
        </mxCell>
        <mxCell id="LXHgbnVBe5iBIq8MEzDh-56" value="" style="rounded=0;whiteSpace=wrap;html=1;sketch=1;hachureGap=4;jiggle=2;curveFitting=1;fontFamily=Architects Daughter;fontSource=https%3A%2F%2Ffonts.googleapis.com%2Fcss%3Ffamily%3DArchitects%2BDaughter;fontSize=20;strokeWidth=2;strokeColor=#FF0000;" vertex="1" parent="1">
          <mxGeometry x="460" y="60" width="30" height="60" as="geometry" />
        </mxCell>
        <mxCell id="LXHgbnVBe5iBIq8MEzDh-68" value="&lt;font style=&quot;font-size: 10px;&quot;&gt;&quot;zero&quot;&lt;/font&gt;" style="text;html=1;strokeColor=none;fillColor=none;align=center;verticalAlign=middle;whiteSpace=wrap;rounded=0;fontSize=20;fontFamily=Architects Daughter;rotation=-90;" vertex="1" parent="1">
          <mxGeometry x="175" y="90" width="40" height="30" as="geometry" />
        </mxCell>
        <mxCell id="LXHgbnVBe5iBIq8MEzDh-70" value="&lt;font style=&quot;font-size: 10px;&quot;&gt;&quot;one&quot;&lt;/font&gt;" style="text;html=1;strokeColor=none;fillColor=none;align=center;verticalAlign=middle;whiteSpace=wrap;rounded=0;fontSize=20;fontFamily=Architects Daughter;rotation=-90;" vertex="1" parent="1">
          <mxGeometry x="215" y="90" width="40" height="30" as="geometry" />
        </mxCell>
        <mxCell id="LXHgbnVBe5iBIq8MEzDh-71" value="&lt;font color=&quot;#330000&quot; style=&quot;font-size: 10px;&quot;&gt;&quot;two&quot;&lt;/font&gt;" style="text;html=1;strokeColor=none;fillColor=none;align=center;verticalAlign=middle;whiteSpace=wrap;rounded=0;fontSize=20;fontFamily=Architects Daughter;rotation=-90;" vertex="1" parent="1">
          <mxGeometry x="255" y="90" width="40" height="30" as="geometry" />
        </mxCell>
        <mxCell id="LXHgbnVBe5iBIq8MEzDh-72" value="&lt;font color=&quot;#330000&quot; style=&quot;font-size: 10px;&quot;&gt;&quot;three&quot;&lt;/font&gt;" style="text;html=1;strokeColor=none;fillColor=none;align=center;verticalAlign=middle;whiteSpace=wrap;rounded=0;fontSize=20;fontFamily=Architects Daughter;rotation=-90;" vertex="1" parent="1">
          <mxGeometry x="295" y="90" width="40" height="30" as="geometry" />
        </mxCell>
        <mxCell id="LXHgbnVBe5iBIq8MEzDh-73" value="&lt;font style=&quot;&quot;&gt;&lt;font style=&quot;font-size: 10px;&quot;&gt;&quot;four&quot;&lt;/font&gt;&lt;br&gt;&lt;/font&gt;" style="text;html=1;strokeColor=none;fillColor=none;align=center;verticalAlign=middle;whiteSpace=wrap;rounded=0;fontSize=20;fontFamily=Architects Daughter;rotation=-90;" vertex="1" parent="1">
          <mxGeometry x="335" y="90" width="40" height="30" as="geometry" />
        </mxCell>
        <mxCell id="LXHgbnVBe5iBIq8MEzDh-74" value="&lt;font style=&quot;font-size: 10px;&quot;&gt;&quot;five&quot;&lt;/font&gt;" style="text;html=1;strokeColor=none;fillColor=none;align=center;verticalAlign=middle;whiteSpace=wrap;rounded=0;fontSize=20;fontFamily=Architects Daughter;rotation=-90;" vertex="1" parent="1">
          <mxGeometry x="374" y="90" width="40" height="30" as="geometry" />
        </mxCell>
        <mxCell id="LXHgbnVBe5iBIq8MEzDh-75" value="&lt;font color=&quot;#009900&quot; style=&quot;font-size: 10px;&quot;&gt;&quot;six&quot;&lt;/font&gt;" style="text;html=1;strokeColor=none;fillColor=none;align=center;verticalAlign=middle;whiteSpace=wrap;rounded=0;fontSize=20;fontFamily=Architects Daughter;rotation=-90;" vertex="1" parent="1">
          <mxGeometry x="450" y="90" width="40" height="30" as="geometry" />
        </mxCell>
        <mxCell id="LXHgbnVBe5iBIq8MEzDh-76" value="&lt;font color=&quot;#009900&quot; style=&quot;font-size: 10px;&quot;&gt;&quot;seven&quot;&lt;/font&gt;" style="text;html=1;strokeColor=none;fillColor=none;align=center;verticalAlign=middle;whiteSpace=wrap;rounded=0;fontSize=20;fontFamily=Architects Daughter;rotation=-90;" vertex="1" parent="1">
          <mxGeometry x="490" y="90" width="40" height="30" as="geometry" />
        </mxCell>
        <mxCell id="LXHgbnVBe5iBIq8MEzDh-77" value="&lt;font color=&quot;#009900&quot; style=&quot;font-size: 10px;&quot;&gt;&quot;eight&quot;&lt;/font&gt;" style="text;html=1;strokeColor=none;fillColor=none;align=center;verticalAlign=middle;whiteSpace=wrap;rounded=0;fontSize=20;fontFamily=Architects Daughter;rotation=-90;" vertex="1" parent="1">
          <mxGeometry x="530" y="90" width="40" height="30" as="geometry" />
        </mxCell>
        <mxCell id="LXHgbnVBe5iBIq8MEzDh-79" value="" style="rounded=0;whiteSpace=wrap;html=1;sketch=1;hachureGap=4;jiggle=2;curveFitting=1;fontFamily=Architects Daughter;fontSource=https%3A%2F%2Ffonts.googleapis.com%2Fcss%3Ffamily%3DArchitects%2BDaughter;fontSize=20;strokeWidth=2;strokeColor=#FF0000;" vertex="1" parent="1">
          <mxGeometry x="180" y="130" width="30" height="60" as="geometry" />
        </mxCell>
        <mxCell id="LXHgbnVBe5iBIq8MEzDh-80" value="" style="rounded=0;whiteSpace=wrap;html=1;sketch=1;hachureGap=4;jiggle=2;curveFitting=1;fontFamily=Architects Daughter;fontSource=https%3A%2F%2Ffonts.googleapis.com%2Fcss%3Ffamily%3DArchitects%2BDaughter;fontSize=20;strokeWidth=2;strokeColor=#FF0000;" vertex="1" parent="1">
          <mxGeometry x="220" y="130" width="30" height="60" as="geometry" />
        </mxCell>
        <mxCell id="LXHgbnVBe5iBIq8MEzDh-81" value="" style="rounded=0;whiteSpace=wrap;html=1;sketch=1;hachureGap=4;jiggle=2;curveFitting=1;fontFamily=Architects Daughter;fontSource=https%3A%2F%2Ffonts.googleapis.com%2Fcss%3Ffamily%3DArchitects%2BDaughter;fontSize=20;strokeWidth=2;strokeColor=#FF0000;" vertex="1" parent="1">
          <mxGeometry x="260" y="130" width="30" height="60" as="geometry" />
        </mxCell>
        <mxCell id="LXHgbnVBe5iBIq8MEzDh-82" value="" style="rounded=0;whiteSpace=wrap;html=1;sketch=1;hachureGap=4;jiggle=2;curveFitting=1;fontFamily=Architects Daughter;fontSource=https%3A%2F%2Ffonts.googleapis.com%2Fcss%3Ffamily%3DArchitects%2BDaughter;fontSize=20;strokeWidth=2;strokeColor=#FF0000;" vertex="1" parent="1">
          <mxGeometry x="300" y="130" width="30" height="60" as="geometry" />
        </mxCell>
        <mxCell id="LXHgbnVBe5iBIq8MEzDh-83" value="" style="rounded=0;whiteSpace=wrap;html=1;sketch=1;hachureGap=4;jiggle=2;curveFitting=1;fontFamily=Architects Daughter;fontSource=https%3A%2F%2Ffonts.googleapis.com%2Fcss%3Ffamily%3DArchitects%2BDaughter;fontSize=20;strokeWidth=2;strokeColor=#FF0000;" vertex="1" parent="1">
          <mxGeometry x="340" y="130" width="30" height="60" as="geometry" />
        </mxCell>
        <mxCell id="LXHgbnVBe5iBIq8MEzDh-84" value="" style="rounded=0;whiteSpace=wrap;html=1;sketch=1;hachureGap=4;jiggle=2;curveFitting=1;fontFamily=Architects Daughter;fontSource=https%3A%2F%2Ffonts.googleapis.com%2Fcss%3Ffamily%3DArchitects%2BDaughter;fontSize=20;strokeWidth=2;strokeColor=#FF0000;" vertex="1" parent="1">
          <mxGeometry x="380" y="130" width="30" height="60" as="geometry" />
        </mxCell>
        <mxCell id="LXHgbnVBe5iBIq8MEzDh-85" value="" style="rounded=0;whiteSpace=wrap;html=1;sketch=1;hachureGap=4;jiggle=2;curveFitting=1;fontFamily=Architects Daughter;fontSource=https%3A%2F%2Ffonts.googleapis.com%2Fcss%3Ffamily%3DArchitects%2BDaughter;fontSize=20;strokeWidth=2;strokeColor=#FF0000;" vertex="1" parent="1">
          <mxGeometry x="420" y="130" width="30" height="60" as="geometry" />
        </mxCell>
        <mxCell id="LXHgbnVBe5iBIq8MEzDh-86" value="" style="rounded=0;whiteSpace=wrap;html=1;sketch=1;hachureGap=4;jiggle=2;curveFitting=1;fontFamily=Architects Daughter;fontSource=https%3A%2F%2Ffonts.googleapis.com%2Fcss%3Ffamily%3DArchitects%2BDaughter;fontSize=20;strokeWidth=2;strokeColor=#FF0000;" vertex="1" parent="1">
          <mxGeometry x="500" y="130" width="30" height="60" as="geometry" />
        </mxCell>
        <mxCell id="LXHgbnVBe5iBIq8MEzDh-87" value="" style="rounded=0;whiteSpace=wrap;html=1;sketch=1;hachureGap=4;jiggle=2;curveFitting=1;fontFamily=Architects Daughter;fontSource=https%3A%2F%2Ffonts.googleapis.com%2Fcss%3Ffamily%3DArchitects%2BDaughter;fontSize=20;strokeWidth=2;strokeColor=#FF0000;" vertex="1" parent="1">
          <mxGeometry x="540" y="130" width="30" height="60" as="geometry" />
        </mxCell>
        <mxCell id="LXHgbnVBe5iBIq8MEzDh-88" value="" style="rounded=0;whiteSpace=wrap;html=1;sketch=1;hachureGap=4;jiggle=2;curveFitting=1;fontFamily=Architects Daughter;fontSource=https%3A%2F%2Ffonts.googleapis.com%2Fcss%3Ffamily%3DArchitects%2BDaughter;fontSize=20;strokeWidth=2;strokeColor=#FF0000;" vertex="1" parent="1">
          <mxGeometry x="460" y="130" width="30" height="60" as="geometry" />
        </mxCell>
        <mxCell id="LXHgbnVBe5iBIq8MEzDh-89" value="&lt;font color=&quot;#009900&quot; style=&quot;font-size: 10px;&quot;&gt;&quot;ten&quot;&lt;/font&gt;" style="text;html=1;strokeColor=none;fillColor=none;align=center;verticalAlign=middle;whiteSpace=wrap;rounded=0;fontSize=20;fontFamily=Architects Daughter;rotation=-90;" vertex="1" parent="1">
          <mxGeometry x="210" y="160" width="40" height="30" as="geometry" />
        </mxCell>
        <mxCell id="LXHgbnVBe5iBIq8MEzDh-90" value="&lt;font color=&quot;#009900&quot; style=&quot;font-size: 10px;&quot;&gt;&quot;eleven&quot;&lt;/font&gt;" style="text;html=1;strokeColor=none;fillColor=none;align=center;verticalAlign=middle;whiteSpace=wrap;rounded=0;fontSize=20;fontFamily=Architects Daughter;rotation=-90;" vertex="1" parent="1">
          <mxGeometry x="250" y="160" width="40" height="30" as="geometry" />
        </mxCell>
        <mxCell id="LXHgbnVBe5iBIq8MEzDh-91" value="&lt;font color=&quot;#009900&quot; style=&quot;font-size: 10px;&quot;&gt;&quot;twelve&quot;&lt;/font&gt;" style="text;html=1;strokeColor=none;fillColor=none;align=center;verticalAlign=middle;whiteSpace=wrap;rounded=0;fontSize=20;fontFamily=Architects Daughter;rotation=-90;" vertex="1" parent="1">
          <mxGeometry x="290" y="160" width="40" height="30" as="geometry" />
        </mxCell>
        <mxCell id="LXHgbnVBe5iBIq8MEzDh-92" value="&lt;font color=&quot;#009900&quot; style=&quot;font-size: 10px;&quot;&gt;&quot;thirteen&quot;&lt;/font&gt;" style="text;html=1;strokeColor=none;fillColor=none;align=center;verticalAlign=middle;whiteSpace=wrap;rounded=0;fontSize=20;fontFamily=Architects Daughter;rotation=-90;" vertex="1" parent="1">
          <mxGeometry x="330" y="160" width="40" height="30" as="geometry" />
        </mxCell>
        <mxCell id="LXHgbnVBe5iBIq8MEzDh-93" value="&lt;font color=&quot;#009900&quot; style=&quot;font-size: 10px;&quot;&gt;&quot;fourteen&quot;&lt;/font&gt;" style="text;html=1;strokeColor=none;fillColor=none;align=center;verticalAlign=middle;whiteSpace=wrap;rounded=0;fontSize=20;fontFamily=Architects Daughter;rotation=-90;" vertex="1" parent="1">
          <mxGeometry x="370" y="160" width="40" height="30" as="geometry" />
        </mxCell>
        <mxCell id="LXHgbnVBe5iBIq8MEzDh-94" value="&lt;font color=&quot;#009900&quot; style=&quot;font-size: 10px;&quot;&gt;&quot;fifteen&quot;&lt;/font&gt;" style="text;html=1;strokeColor=none;fillColor=none;align=center;verticalAlign=middle;whiteSpace=wrap;rounded=0;fontSize=20;fontFamily=Architects Daughter;rotation=-90;" vertex="1" parent="1">
          <mxGeometry x="415" y="160" width="40" height="30" as="geometry" />
        </mxCell>
        <mxCell id="LXHgbnVBe5iBIq8MEzDh-95" value="&lt;font color=&quot;#009900&quot; style=&quot;font-size: 10px;&quot;&gt;&quot;sixteen&quot;&lt;/font&gt;" style="text;html=1;strokeColor=none;fillColor=none;align=center;verticalAlign=middle;whiteSpace=wrap;rounded=0;fontSize=20;fontFamily=Architects Daughter;rotation=-90;" vertex="1" parent="1">
          <mxGeometry x="455" y="160" width="40" height="30" as="geometry" />
        </mxCell>
        <mxCell id="LXHgbnVBe5iBIq8MEzDh-96" value="&lt;font color=&quot;#009900&quot; style=&quot;font-size: 10px;&quot;&gt;&quot;seventeen&quot;&lt;/font&gt;" style="text;html=1;strokeColor=none;fillColor=none;align=center;verticalAlign=middle;whiteSpace=wrap;rounded=0;fontSize=20;fontFamily=Architects Daughter;rotation=-90;" vertex="1" parent="1">
          <mxGeometry x="495" y="160" width="40" height="30" as="geometry" />
        </mxCell>
        <mxCell id="LXHgbnVBe5iBIq8MEzDh-97" value="&lt;font color=&quot;#009900&quot; style=&quot;font-size: 10px;&quot;&gt;&quot;eighteen&quot;&lt;/font&gt;" style="text;html=1;strokeColor=none;fillColor=none;align=center;verticalAlign=middle;whiteSpace=wrap;rounded=0;fontSize=20;fontFamily=Architects Daughter;rotation=-90;" vertex="1" parent="1">
          <mxGeometry x="530" y="160" width="40" height="30" as="geometry" />
        </mxCell>
        <mxCell id="LXHgbnVBe5iBIq8MEzDh-98" value="&lt;font color=&quot;#cc0000&quot; style=&quot;font-size: 17px;&quot;&gt;&quot;nineteen&quot;&lt;/font&gt;" style="text;html=1;strokeColor=none;fillColor=none;align=center;verticalAlign=middle;whiteSpace=wrap;rounded=0;fontSize=20;fontFamily=Architects Daughter;rotation=-90;" vertex="1" parent="1">
          <mxGeometry x="600" y="150" width="40" height="30" as="geometry" />
        </mxCell>
        <mxCell id="LXHgbnVBe5iBIq8MEzDh-100" value="&lt;font style=&quot;font-size: 12px;&quot;&gt;0&lt;/font&gt;" style="text;html=1;strokeColor=none;fillColor=none;align=center;verticalAlign=middle;whiteSpace=wrap;rounded=0;fontSize=20;fontFamily=Architects Daughter;rotation=0;" vertex="1" parent="1">
          <mxGeometry x="180" y="60" width="30" height="20" as="geometry" />
        </mxCell>
        <mxCell id="LXHgbnVBe5iBIq8MEzDh-101" value="&lt;font style=&quot;font-size: 12px;&quot;&gt;1&lt;/font&gt;" style="text;html=1;strokeColor=none;fillColor=none;align=center;verticalAlign=middle;whiteSpace=wrap;rounded=0;fontSize=20;fontFamily=Architects Daughter;rotation=0;" vertex="1" parent="1">
          <mxGeometry x="220" y="60" width="30" height="20" as="geometry" />
        </mxCell>
        <mxCell id="LXHgbnVBe5iBIq8MEzDh-102" value="&lt;font style=&quot;font-size: 12px;&quot;&gt;2&lt;/font&gt;" style="text;html=1;strokeColor=none;fillColor=none;align=center;verticalAlign=middle;whiteSpace=wrap;rounded=0;fontSize=20;fontFamily=Architects Daughter;rotation=0;" vertex="1" parent="1">
          <mxGeometry x="260" y="60" width="30" height="20" as="geometry" />
        </mxCell>
        <mxCell id="LXHgbnVBe5iBIq8MEzDh-103" value="&lt;font style=&quot;font-size: 12px;&quot;&gt;3&lt;/font&gt;" style="text;html=1;strokeColor=none;fillColor=none;align=center;verticalAlign=middle;whiteSpace=wrap;rounded=0;fontSize=20;fontFamily=Architects Daughter;rotation=0;" vertex="1" parent="1">
          <mxGeometry x="300" y="60" width="30" height="20" as="geometry" />
        </mxCell>
        <mxCell id="LXHgbnVBe5iBIq8MEzDh-104" value="&lt;font style=&quot;font-size: 12px;&quot;&gt;4&lt;/font&gt;" style="text;html=1;strokeColor=none;fillColor=none;align=center;verticalAlign=middle;whiteSpace=wrap;rounded=0;fontSize=20;fontFamily=Architects Daughter;rotation=0;" vertex="1" parent="1">
          <mxGeometry x="340" y="60" width="30" height="20" as="geometry" />
        </mxCell>
        <mxCell id="LXHgbnVBe5iBIq8MEzDh-105" value="&lt;font style=&quot;font-size: 12px;&quot;&gt;5&lt;/font&gt;" style="text;html=1;strokeColor=none;fillColor=none;align=center;verticalAlign=middle;whiteSpace=wrap;rounded=0;fontSize=20;fontFamily=Architects Daughter;rotation=0;" vertex="1" parent="1">
          <mxGeometry x="380" y="60" width="30" height="20" as="geometry" />
        </mxCell>
        <mxCell id="LXHgbnVBe5iBIq8MEzDh-106" value="&lt;font style=&quot;font-size: 12px;&quot;&gt;6&lt;/font&gt;" style="text;html=1;strokeColor=none;fillColor=none;align=center;verticalAlign=middle;whiteSpace=wrap;rounded=0;fontSize=20;fontFamily=Architects Daughter;rotation=0;" vertex="1" parent="1">
          <mxGeometry x="420" y="60" width="30" height="20" as="geometry" />
        </mxCell>
        <mxCell id="LXHgbnVBe5iBIq8MEzDh-107" value="&lt;font style=&quot;font-size: 12px;&quot;&gt;7&lt;/font&gt;" style="text;html=1;strokeColor=none;fillColor=none;align=center;verticalAlign=middle;whiteSpace=wrap;rounded=0;fontSize=20;fontFamily=Architects Daughter;rotation=0;" vertex="1" parent="1">
          <mxGeometry x="460" y="60" width="30" height="20" as="geometry" />
        </mxCell>
        <mxCell id="LXHgbnVBe5iBIq8MEzDh-108" value="&lt;font style=&quot;font-size: 12px;&quot;&gt;8&lt;/font&gt;" style="text;html=1;strokeColor=none;fillColor=none;align=center;verticalAlign=middle;whiteSpace=wrap;rounded=0;fontSize=20;fontFamily=Architects Daughter;rotation=0;" vertex="1" parent="1">
          <mxGeometry x="500" y="60" width="30" height="20" as="geometry" />
        </mxCell>
        <mxCell id="LXHgbnVBe5iBIq8MEzDh-109" value="&lt;font style=&quot;font-size: 12px;&quot;&gt;9&lt;/font&gt;" style="text;html=1;strokeColor=none;fillColor=none;align=center;verticalAlign=middle;whiteSpace=wrap;rounded=0;fontSize=20;fontFamily=Architects Daughter;rotation=0;" vertex="1" parent="1">
          <mxGeometry x="540" y="60" width="30" height="20" as="geometry" />
        </mxCell>
        <mxCell id="LXHgbnVBe5iBIq8MEzDh-110" value="&lt;font style=&quot;font-size: 12px;&quot;&gt;10&lt;/font&gt;" style="text;html=1;strokeColor=none;fillColor=none;align=center;verticalAlign=middle;whiteSpace=wrap;rounded=0;fontSize=20;fontFamily=Architects Daughter;rotation=0;" vertex="1" parent="1">
          <mxGeometry x="175" y="130" width="30" height="20" as="geometry" />
        </mxCell>
        <mxCell id="LXHgbnVBe5iBIq8MEzDh-111" value="&lt;font style=&quot;font-size: 12px;&quot;&gt;11&lt;/font&gt;" style="text;html=1;strokeColor=none;fillColor=none;align=center;verticalAlign=middle;whiteSpace=wrap;rounded=0;fontSize=20;fontFamily=Architects Daughter;rotation=0;" vertex="1" parent="1">
          <mxGeometry x="220" y="130" width="30" height="20" as="geometry" />
        </mxCell>
        <mxCell id="LXHgbnVBe5iBIq8MEzDh-112" value="&lt;font style=&quot;font-size: 12px;&quot;&gt;12&lt;/font&gt;" style="text;html=1;strokeColor=none;fillColor=none;align=center;verticalAlign=middle;whiteSpace=wrap;rounded=0;fontSize=20;fontFamily=Architects Daughter;rotation=0;" vertex="1" parent="1">
          <mxGeometry x="260" y="130" width="30" height="20" as="geometry" />
        </mxCell>
        <mxCell id="LXHgbnVBe5iBIq8MEzDh-113" value="&lt;font style=&quot;font-size: 12px;&quot;&gt;13&lt;/font&gt;" style="text;html=1;strokeColor=none;fillColor=none;align=center;verticalAlign=middle;whiteSpace=wrap;rounded=0;fontSize=20;fontFamily=Architects Daughter;rotation=0;" vertex="1" parent="1">
          <mxGeometry x="300" y="130" width="30" height="20" as="geometry" />
        </mxCell>
        <mxCell id="LXHgbnVBe5iBIq8MEzDh-114" value="&lt;font style=&quot;font-size: 12px;&quot;&gt;14&lt;/font&gt;" style="text;html=1;strokeColor=none;fillColor=none;align=center;verticalAlign=middle;whiteSpace=wrap;rounded=0;fontSize=20;fontFamily=Architects Daughter;rotation=0;" vertex="1" parent="1">
          <mxGeometry x="340" y="130" width="30" height="20" as="geometry" />
        </mxCell>
        <mxCell id="LXHgbnVBe5iBIq8MEzDh-115" value="&lt;font style=&quot;font-size: 12px;&quot;&gt;15&lt;/font&gt;" style="text;html=1;strokeColor=none;fillColor=none;align=center;verticalAlign=middle;whiteSpace=wrap;rounded=0;fontSize=20;fontFamily=Architects Daughter;rotation=0;" vertex="1" parent="1">
          <mxGeometry x="380" y="130" width="30" height="20" as="geometry" />
        </mxCell>
        <mxCell id="LXHgbnVBe5iBIq8MEzDh-116" value="&lt;font style=&quot;font-size: 12px;&quot;&gt;16&lt;/font&gt;" style="text;html=1;strokeColor=none;fillColor=none;align=center;verticalAlign=middle;whiteSpace=wrap;rounded=0;fontSize=20;fontFamily=Architects Daughter;rotation=0;" vertex="1" parent="1">
          <mxGeometry x="420" y="130" width="30" height="20" as="geometry" />
        </mxCell>
        <mxCell id="LXHgbnVBe5iBIq8MEzDh-117" value="&lt;font style=&quot;font-size: 12px;&quot;&gt;17&lt;/font&gt;" style="text;html=1;strokeColor=none;fillColor=none;align=center;verticalAlign=middle;whiteSpace=wrap;rounded=0;fontSize=20;fontFamily=Architects Daughter;rotation=0;" vertex="1" parent="1">
          <mxGeometry x="460" y="130" width="30" height="20" as="geometry" />
        </mxCell>
        <mxCell id="LXHgbnVBe5iBIq8MEzDh-118" value="&lt;font style=&quot;font-size: 12px;&quot;&gt;18&lt;/font&gt;" style="text;html=1;strokeColor=none;fillColor=none;align=center;verticalAlign=middle;whiteSpace=wrap;rounded=0;fontSize=20;fontFamily=Architects Daughter;rotation=0;" vertex="1" parent="1">
          <mxGeometry x="500" y="130" width="30" height="20" as="geometry" />
        </mxCell>
        <mxCell id="LXHgbnVBe5iBIq8MEzDh-119" value="&lt;font style=&quot;font-size: 12px;&quot;&gt;19&lt;/font&gt;" style="text;html=1;strokeColor=none;fillColor=none;align=center;verticalAlign=middle;whiteSpace=wrap;rounded=0;fontSize=20;fontFamily=Architects Daughter;rotation=0;" vertex="1" parent="1">
          <mxGeometry x="540" y="130" width="30" height="20" as="geometry" />
        </mxCell>
        <mxCell id="LXHgbnVBe5iBIq8MEzDh-78" value="&lt;font color=&quot;#009900&quot; style=&quot;font-size: 10px;&quot;&gt;&quot;nine&quot;&lt;/font&gt;" style="text;html=1;strokeColor=none;fillColor=none;align=center;verticalAlign=middle;whiteSpace=wrap;rounded=0;fontSize=20;fontFamily=Architects Daughter;rotation=-90;" vertex="1" parent="1">
          <mxGeometry x="170" y="160" width="40" height="30" as="geometry" />
        </mxCell>
        <mxCell id="LXHgbnVBe5iBIq8MEzDh-120" value="&lt;font color=&quot;#00cc00&quot; style=&quot;font-size: 10px;&quot;&gt;&quot;five - 2&quot;&lt;/font&gt;" style="text;html=1;strokeColor=none;fillColor=none;align=center;verticalAlign=middle;whiteSpace=wrap;rounded=0;fontSize=20;fontFamily=Architects Daughter;rotation=-90;" vertex="1" parent="1">
          <mxGeometry x="412" y="92" width="44" height="30" as="geometry" />
        </mxCell>
      </root>
    </mxGraphModel>
  </diagram>
</mxfile>
